<mxfile host="app.diagrams.net" modified="2023-10-12T05:04:14.932Z" agent="Mozilla/5.0 (Windows NT 10.0; Win64; x64) AppleWebKit/537.36 (KHTML, like Gecko) Chrome/118.0.0.0 Safari/537.36" version="22.0.4" etag="wRPRg20h96vHwUft4tfO" type="github">
  <diagram name="Page-1" id="kC4iVRGY36I7MeXufBOy">
    <mxGraphModel>
      <root>
        <mxCell id="0" />
        <mxCell id="1" parent="0" />
      </root>
    </mxGraphModel>
  </diagram>
</mxfile>
